<svg xmlns="http://www.w3.org/2000/svg" width="115" height="79" viewBox="0 0 115 79"><path fill="none" stroke="#ffd224" stroke-miterlimit="10" stroke-width="1.5" d="M44.7 63.9c2.2.5 4.4.8 6.6.7h1.6l.8-.2h.8l.8-.3.8-.2h.4l.4-.3.8-.3"/><path fill="#ffd224" d="M56 69.6c-.1.5-.3 1-.6 1.4l-.9 1.2c-.2.2-.4.4-.6.5-.2.2-.4.3-.6.5-.4.3-.9.6-1.4.9-2 1.1-4.3 1.9-6.6 3.1 0 0 .1-.5.5-1.4.2-.4.4-.9.7-1.5s.6-1.2 1-1.8c1.5-2.6 3.9-5.7 6.7-8.2l.3.6c.2.4.5.9.7 1.5.5 1.1 1.1 2.4.8 3.3z"/><path fill="#ffd224" d="M53.7 59.1l-.6-1.2c-.2-.4-.4-.7-.7-1-.1-.1-.2-.3-.3-.4l-.3-.4c-.2-.3-.4-.5-.6-.8-.8-1-1.7-2-2.2-3.6v3.1c0 .6 0 1.3.2 2 .1.7.3 1.4.5 2.2.2.7.5 1.5.9 2.2.8 1.4 2 2.7 3.8 3.5v-2.3c0-1.2-.2-2.6-.6-3.3z"/><path fill="none" stroke="#ffd224" stroke-miterlimit="10" stroke-width="1.5" d="M32.4 58.6c1.9 1.2 3.9 2.3 5.9 3.2s4.2 1.6 6.4 2.1"/><path fill="#ffd224" d="M39.9 68.3c-.7.8-1.5 1.3-2.3 1.6-.4.2-.9.3-1.4.4s-1 .2-1.5.2-1 .1-1.6.1h-1.6c-1.1.2-2.2.3-3.4.4 0 0 .3-.5 1-1.1.6-.7 1.5-1.6 2.7-2.5s2.6-1.9 4.1-2.8c1.6-.8 3.3-1.5 5.1-2 0 0 0 1.1-.1 2.3s-.4 2.6-1 3.2z"/><path fill="#ffd224" d="M43.3 58c0-1-.1-1.8-.3-2.6-.1-.4-.2-.7-.4-1.1-.1-.4-.3-.7-.4-1s-.3-.7-.4-1c-.1-.4-.3-.7-.4-1.1-.2-.8-.5-1.5-.5-2.4 0 0-.3.5-.6 1.4-.3.8-.8 2.1-1 3.5-.3 1.4-.5 3-.2 4.7.2 1.7.8 3.4 2 4.9 0 0 .7-.9 1.3-1.9.6-1.1 1.2-2.4 1.1-3.2z"/><path fill="none" stroke="#ffd224" stroke-miterlimit="10" stroke-width="1.5" d="M22.5 49.6c1.4 1.8 2.9 3.4 4.6 4.9s3.5 2.8 5.3 4.1"/><path fill="#ffd224" d="M26.4 61.2c-1.8 1-3.6 1-5.6.6-1-.2-2-.5-3.1-.8-.5-.1-1.1-.3-1.6-.4-.6-.1-1.1-.3-1.7-.4 0 0 .5-.3 1.3-.8.8-.4 2-1 3.4-1.5.7-.3 1.5-.5 2.3-.7s1.7-.4 2.5-.6c.9-.1 1.8-.3 2.7-.3h2.8s-.4 1-.9 2.1-1.2 2.4-2 2.7z"/><path fill="#ffd224" d="M32.9 52.6c.6-1.9.5-3.4.4-4.9 0-.7-.1-1.5-.1-2.3v-1.2c0-.4.1-.8.3-1.2 0 0-.4.4-1 1.1s-1.4 1.7-2.1 2.9c-.4.6-.7 1.3-1 2s-.5 1.5-.7 2.3-.2 1.7-.2 2.6c0 .4 0 .9.2 1.3 0 .5.2.9.4 1.4 0 0 .9-.6 1.8-1.4s1.9-1.9 2.1-2.6z"/><path fill="none" stroke="#ffd224" stroke-miterlimit="10" stroke-width="1.5" d="M16.9 37.5c.2 1.1.5 2.2.9 3.2.4 1.1.8 2.1 1.3 3.1.9 2 2.1 4 3.4 5.7"/><path fill="#ffd224" d="M15.9 49.9c-1 .1-2 0-2.9-.4-.5-.2-.9-.4-1.4-.7-.4-.2-.8-.5-1.3-.8-1.7-1.2-3.3-2.8-5.4-4.3 0 0 .6 0 1.5-.1h3.7c.8 0 1.6.2 2.4.3s1.7.3 2.5.5c.9.2 1.7.5 2.6.8.4.2.9.3 1.3.5s.8.4 1.3.6c0 0-.7.8-1.6 1.7s-2 1.8-2.8 1.8z"/><path fill="#ffd224" d="M25.1 44.3c.7-.7 1.1-1.4 1.5-2.1.2-.3.4-.6.5-1s.3-.7.4-1.1c.5-1.4 1-2.8 2.2-3.9 0 0-.5.2-1.4.6-.8.4-2 .9-3.1 1.7-.6.4-1.2.9-1.8 1.4s-1.1 1.1-1.6 1.8-.9 1.4-1.2 2.3c-.2.4-.3.8-.4 1.3 0 .4-.2.9-.2 1.4 0 0 1.1-.2 2.2-.7 1.2-.4 2.4-1.1 2.9-1.7z"/><path fill="none" stroke="#ffd224" stroke-miterlimit="10" stroke-width="1.5" d="M18.6 24.5c-1 2-1.7 4.2-2 6.4s-.2 4.5.3 6.6"/><path fill="#ffd224" d="M10.9 34.7c-1.9-.8-3.1-2.6-3.8-4.8-.8-2.2-1.1-4.9-1.7-7.5 0 0 .5.3 1.3.8s1.8 1.4 2.9 2.4 2.4 2.3 3.5 3.7c1.2 1.4 2.4 2.9 3.4 4.5 0 0-1 .4-2.2.7s-2.6.6-3.3.2z"/><path fill="#ffd224" d="M21.7 34.1c1.8-.6 3-1.3 4.1-1.9s2.2-1.1 3.8-1.1c0 0-.5-.2-1.4-.4s-2.1-.5-3.5-.6c-1.4 0-3 0-4.5.5s-3 1.5-4 3.2c0 0 1 .3 2.3.5 1.2.2 2.6.2 3.4-.1z"/><path fill="none" stroke="#ffd224" stroke-miterlimit="10" stroke-width="1.5" d="M26.6 13.8c-1.6 1.6-3.1 3.3-4.4 5.1-.7.9-1.3 1.8-1.9 2.7s-1.1 1.9-1.6 2.9"/><path fill="#ffd224" d="M15.4 18.8c-.6-.9-.9-1.7-1-2.7-.1-.9 0-1.9 0-2.9.2-2 .8-4.1.8-6.4 0 0 .4.4.9 1.2s1.2 1.8 1.9 3.2c.3.7.7 1.4 1 2.2s.6 1.6.8 2.4c.4 1.7.7 3.5.7 5.4 0 0-.3 0-.7-.2-.4-.1-1-.3-1.5-.5-1.2-.4-2.5-1-2.9-1.7z"/><path fill="#ffd224" d="M24.6 24.5c.9.2 1.8.3 2.6.3s1.5-.1 2.3-.2c1.5-.3 3-.6 4.9-.5 0 0-.4-.4-1.2-.9S31.4 22 30 21.5c-.7-.3-1.4-.6-2.1-.8-.8-.2-1.6-.4-2.4-.5-1.7-.2-3.5 0-5.2.8 0 0 .2.2.4.5.3.3.7.7 1.1 1.2.9.8 2 1.7 2.8 1.8z"/><path fill="#ffcb05" d="M50.9 65.4c-4.5 0-9.5-1.3-14.6-3.8-7.7-3.8-14.2-9.9-17.4-16.3-5.9-11.8-3.8-21.2 7.2-32.5l1.2 1.2c-10.5 10.8-12.4 19.3-6.8 30.5 3 6.1 9.3 11.9 16.7 15.6 7.7 3.8 15.2 4.6 20.7 2.3l.7 1.6c-2.3 1-4.8 1.4-7.6 1.4z"/><path fill="#ffcb05" d="M26.2 14.4S27.4 6.8 37.4 6c0 0-2.4 8.4-11.2 8.4"/><path fill="#e1c33f" d="M26.2 14.7h-.3v-.3s1.4-7.8 11.4-8.6h.4v.3c-.1 0-2.6 8.6-11.5 8.6zM37 6.4c-8.2.8-10.2 6.5-10.5 7.8 7.2-.2 9.9-6.3 10.5-7.8z"/><path fill="none" stroke="#ffd224" stroke-miterlimit="10" stroke-width="1.5" d="M70.4 64.2c-2.2.5-4.5.8-6.7.7h-1.6l-.8-.2h-.8l-.8-.3-.8-.2h-.4l-.4-.3-.8-.3"/><path fill="#ffd224" d="M61.3 59.1l.6-1.2c.2-.4.4-.7.7-1 .1-.1.2-.3.3-.4l.3-.4c.2-.3.4-.5.6-.8.8-1 1.7-2 2.2-3.6v3.1c0 .6 0 1.3-.2 2-.1.7-.3 1.4-.5 2.2-.2.7-.5 1.5-.9 2.2-.8 1.4-2 2.7-3.8 3.5v-2.3c0-1.2.2-2.6.6-3.3z"/><path fill="#ffd224" d="M59 69.6c.1.5.3 1 .6 1.4l.9 1.2c.2.2.4.4.6.5.2.2.4.3.6.5.4.3.9.6 1.4.9 2 1.1 4.3 1.9 6.6 3.1 0 0-.1-.5-.5-1.4-.2-.4-.4-.9-.7-1.5s-.6-1.2-1-1.8c-1.5-2.6-3.9-5.7-6.7-8.2l-.3.6c-.2.4-.5.9-.7 1.5-.5 1.1-1.1 2.4-.8 3.3z"/><path fill="none" stroke="#ffd224" stroke-miterlimit="10" stroke-width="1.5" d="M82.8 58.9c-1.9 1.2-3.9 2.3-6 3.2s-4.2 1.6-6.4 2.1"/><path fill="#ffd224" d="M71.7 58c0-1 .1-1.8.3-2.6.1-.4.2-.7.4-1.1.1-.4.3-.7.4-1s.3-.7.4-1c.1-.4.3-.7.4-1.1.2-.8.5-1.5.5-2.4 0 0 .3.5.6 1.4.3.8.8 2.1 1 3.5.3 1.4.5 3 .2 4.7-.2 1.7-.8 3.4-2 4.9 0 0-.7-.9-1.3-1.9-.6-1.1-1.2-2.4-1.1-3.2z"/><path fill="#ffd224" d="M75.1 68.3c.7.8 1.5 1.3 2.3 1.6.4.2.9.3 1.4.4s1 .2 1.5.2 1 .1 1.6.1h1.6c1.1.2 2.2.3 3.4.4 0 0-.3-.5-1-1.1-.6-.7-1.5-1.6-2.7-2.5s-2.6-1.9-4.1-2.8c-1.6-.8-3.3-1.5-5.1-2 0 0 0 1.1.1 2.3s.4 2.6 1 3.2z"/><path fill="none" stroke="#ffd224" stroke-miterlimit="10" stroke-width="1.5" d="M92.8 49.8c-1.4 1.8-2.9 3.4-4.6 4.9s-3.5 2.9-5.4 4.1"/><path fill="#ffd224" d="M82.1 52.6c-.6-1.9-.5-3.4-.4-4.9 0-.7.1-1.5.1-2.3v-1.2c0-.4-.1-.8-.3-1.2 0 0 .4.4 1 1.1s1.4 1.7 2.1 2.9c.4.6.7 1.3 1 2s.5 1.5.7 2.3.2 1.7.2 2.6c0 .4 0 .9-.2 1.3 0 .5-.2.9-.4 1.4 0 0-.9-.6-1.8-1.4s-1.9-1.9-2.1-2.6z"/><path fill="#ffd224" d="M88.6 61.2c1.8 1 3.6 1 5.6.6 1-.2 2-.5 3.1-.8.5-.1 1.1-.3 1.6-.4.6-.1 1.1-.3 1.7-.4 0 0-.5-.3-1.3-.8-.8-.4-2-1-3.4-1.5-.7-.3-1.5-.5-2.3-.7s-1.7-.4-2.5-.6c-.9-.1-1.8-.3-2.7-.3h-2.8s.4 1 .9 2.1 1.2 2.4 2 2.7z"/><path fill="none" stroke="#ffd224" stroke-miterlimit="10" stroke-width="1.5" d="M98.5 37.6c-.2 1.1-.5 2.2-.9 3.3s-.8 2.1-1.3 3.1c-.1.3-.2.5-.4.8-.1.3-.2.5-.4.8l-.4.7c-.1.3-.3.5-.4.7s-.3.5-.4.7l-.5.7-.2.4-.3.3-.5.7"/><path fill="#ffd224" d="M89.9 44.3c-.7-.7-1.1-1.4-1.5-2.1-.2-.3-.4-.6-.5-1s-.3-.7-.4-1.1c-.5-1.4-1-2.8-2.2-3.9 0 0 .5.2 1.4.6.8.4 2 .9 3.1 1.7.6.4 1.2.9 1.8 1.4s1.1 1.1 1.6 1.8.9 1.4 1.2 2.3c.2.4.3.8.4 1.3 0 .4.2.9.2 1.4 0 0-1.1-.2-2.2-.7-1.2-.4-2.4-1.1-2.9-1.7z"/><path fill="#ffd224" d="M99.1 49.9c1 .1 2 0 2.9-.4.5-.2.9-.4 1.4-.7.4-.2.8-.5 1.3-.8 1.7-1.2 3.3-2.8 5.4-4.3 0 0-.6 0-1.5-.1h-3.7c-.8 0-1.6.2-2.4.3s-1.7.3-2.5.5c-.9.2-1.7.5-2.6.8-.4.2-.9.3-1.3.5s-.8.4-1.3.6c0 0 .7.8 1.6 1.7s2 1.8 2.8 1.8z"/><path fill="none" stroke="#ffd224" stroke-miterlimit="10" stroke-width="1.5" d="M96.8 24.4c1 2 1.7 4.2 2 6.5s.2 4.6-.3 6.8"/><path fill="#ffd224" d="M93.3 34.1c-1.8-.6-3-1.3-4.1-1.9s-2.2-1.1-3.8-1.1c0 0 .5-.2 1.4-.4s2.1-.5 3.5-.6c1.4 0 3 0 4.5.5s3 1.5 4 3.2c0 0-1 .3-2.3.5-1.2.2-2.6.2-3.4-.1z"/><path fill="#ffd224" d="M104.1 34.7c1.9-.8 3.1-2.6 3.8-4.8.8-2.2 1.1-4.9 1.7-7.5 0 0-.5.3-1.3.8s-1.8 1.4-2.9 2.4-2.4 2.3-3.5 3.7c-1.2 1.4-2.4 2.9-3.4 4.5 0 0 1 .4 2.2.7s2.6.6 3.3.2z"/><path fill="none" stroke="#ffd224" stroke-miterlimit="10" stroke-width="1.5" d="M88.7 13.5c1.6 1.6 3.1 3.3 4.5 5.1.7.9 1.3 1.8 1.9 2.8s1.2 1.9 1.6 3"/><path fill="#ffd224" d="M90.4 24.5c-.9.2-1.8.3-2.6.3s-1.5-.1-2.3-.2c-1.5-.3-3-.6-4.9-.5 0 0 .4-.4 1.2-.9s1.8-1.2 3.2-1.7c.7-.3 1.4-.6 2.1-.8.8-.2 1.6-.4 2.4-.5 1.7-.2 3.5 0 5.2.8 0 0-.2.2-.4.5-.3.3-.7.7-1.1 1.2-.9.8-2 1.7-2.8 1.8z"/><path fill="#ffd224" d="M99.6 18.8c.6-.9.9-1.7 1-2.7.1-.9 0-1.9 0-2.9-.2-2-.8-4.1-.8-6.4 0 0-.4.4-.9 1.2s-1.2 1.8-1.9 3.2c-.3.7-.7 1.4-1 2.2s-.6 1.6-.8 2.4c-.4 1.7-.7 3.5-.7 5.4 0 0 .3 0 .7-.2.4-.1 1-.3 1.5-.5 1.2-.4 2.5-1 2.9-1.7z"/><path fill="#ffcb05" d="M64.1 65.4c-2.8 0-5.3-.5-7.6-1.4l.7-1.6c5.5 2.3 13 1.5 20.7-2.3 7.4-3.7 13.6-9.5 16.7-15.6 5.6-11.2 3.7-19.7-6.8-30.5l1.2-1.2c11 11.2 13.1 20.7 7.2 32.5-3.2 6.4-9.7 12.5-17.4 16.3-5 2.5-10.1 3.8-14.6 3.8z"/><path fill="#ffcb05" d="M88.8 14.4S87.6 6.8 77.6 6c0 0 2.4 8.4 11.2 8.4"/><path fill="#e1c33f" d="M89.1 14.7h-.3c-8.9 0-11.4-8.5-11.4-8.6v-.3h.3c5.2.4 8.1 2.8 9.5 4.6 1.6 2 1.9 3.9 1.9 4zM78 6.4c.6 1.5 3.3 7.7 10.5 7.8-.3-1.4-2.2-7-10.5-7.8z"/><circle cx="56.9" cy="40.2" r="25.1" fill="#d48d2e"/><path fill="#d48d2e" d="M56.9 66.6c-14.6 0-26.4-11.8-26.4-26.4s11.8-26.4 26.4-26.4 26.4 11.8 26.4 26.4-11.8 26.4-26.4 26.4zm0-50.3C43.7 16.3 33 27 33 40.2s10.7 23.9 23.9 23.9 23.9-10.7 23.9-23.9-10.7-23.9-23.9-23.9z"/><path fill="#f392bd" d="M37.1 24.6c2.7-5 4-1.6 17.9-9.5 5.7-3.2 9.5 5 19.2 8 8.7 6 3 7.7 5.5 15.2.5 7.2 3.9 14.4-2.7 15.4-7.7.5-1.7 6-13.4 10.7-14.2-3.7-15.7 2-22.2-5.7-1.3-1.6-2.2-8.3-5.5-10-6.1-3-4.4-6.9-3-13.2 5.7-5.2 4.2-11 4.2-11z"/><circle cx="56.9" cy="40.2" r="6.5" fill="#fff"/><path fill="#d48d2e" d="M56.9 47.4c-4 0-7.2-3.2-7.2-7.2s3.2-7.2 7.2-7.2 7.2 3.2 7.2 7.2-3.2 7.2-7.2 7.2zm0-12.9c-3.2 0-5.7 2.6-5.7 5.7s2.6 5.7 5.7 5.7 5.7-2.6 5.7-5.7-2.6-5.7-5.7-5.7z"/><path fill="#61c7cf" d="M56.9 21.3h6.2v1.5h-6.2z"/><path fill="#ffcb05" d="M70.638 37.085l2.422-5.708 1.381.587-2.422 5.707zM52.904 55.516l4.729 4.01-.97 1.144-4.729-4.01z"/><path fill="#61c7cf" d="M68.171 49.008l6.158.723-.175 1.49-6.158-.723zM38.057 44.67l6.029 1.447-.35 1.459-6.029-1.448z"/><path fill="#ffcb05" d="M45.533 26.012l1.563 6-1.451.378-1.563-6z"/></svg>